<?xml version="1.0" encoding="UTF-8" ?>
<!DOCTYPE svg PUBLIC "-//W3C//DTD SVG 1.1//EN" "http://www.w3.org/Graphics/SVG/1.1/DTD/svg11.dtd">
<svg width="1000" height="1000" xmlns="http://www.w3.org/2000/svg">
 <g>
  <path fill="black" d="m220.28,38.33c25.89999,-0.39 51.84,-0.05 77.75,-0.17c159.01001,0.01 318.01999,0 477.03,0.01c5.29999,0 11.34003,1.66 14.09998,6.59c3.14001,5.88 2.66003,12.82 2.46002,19.26c-6.04999,78.35 -12.13,156.7 -18.17999,235.05001c-0.15002,1.39999 -0.44,2.76999 -0.83002,4.10999c-7.73999,25.64999 -15.39996,51.32001 -23.12,76.98001c-0.64996,2.25 -1.5,4.45999 -1.84998,6.79001c-9.92004,168.35999 -19.82001,336.71997 -29.79999,505.08002c-1.27002,8.25 -5.99005,15.48999 -10.38,22.42999c-7.17999,10.57001 -16.29004,20.32996 -27.99005,25.84998c-22.18994,11.02002 -46.52997,16.88 -70.82996,21.03998c-12.79004,1.92004 -25.66003,3.89001 -38.63,3.60004c-49.35004,-0.01001 -98.69,0 -148.03,0c-15.48001,-0.66998 -30.82001,-3.14001 -46.01001,-6.10004c-19.44,-4.01996 -38.75,-9.44 -56.63,-18.19995c-14.44998,-6.80005 -25.16,-19.53003 -32.92999,-33.17004c-2.89999,-5.44995 -6.16,-11.08997 -6.22,-17.44995c-9.87,-167.64001 -19.78,-335.29004 -29.64,-502.94003c-0.33,-2.32999 -1.17,-4.53 -1.83,-6.76999c-7.75,-25.77002 -15.45,-51.56 -23.2,-77.33002c-0.49001,-1.63998 -0.73001,-3.34998 -0.87001,-5.04999c-5.62,-73 -11.29999,-146 -16.92999,-219.01c-0.41,-10.67 -3.08,-21.73 0.34,-32.16c1.71001,-5.18 7.05,-7.99 12.22,-8.44l0,0z"/>
 </g>
</svg>